<svg width="32" height="32" viewBox="0 0 32 32" fill="none" xmlns="http://www.w3.org/2000/svg">
<g id="vuesax/linear/wallet">
<g id="vuesax/linear/wallet-minus">
<g id="wallet-minus">
<path id="Vector" d="M15.6667 23H9" stroke="#292D32" style="stroke:#292D32;stroke:color(display-p3 0.1608 0.1765 0.1961);stroke-opacity:1;" stroke-width="1.5" stroke-miterlimit="10" stroke-linecap="round" stroke-linejoin="round"/>
<path id="Vector_2" d="M19 19L9 19" stroke="#292D32" style="stroke:#292D32;stroke:color(display-p3 0.1608 0.1765 0.1961);stroke-opacity:1;" stroke-width="1.5" stroke-miterlimit="10" stroke-linecap="round" stroke-linejoin="round"/>
<path id="Vector_3" d="M16.8799 3.35784L16.8399 3.45117L12.9733 12.4245H9.17328C8.26661 12.4245 7.39995 12.6112 6.61328 12.9445L8.94661 7.37117L8.99995 7.23784L9.09328 7.02451C9.11995 6.94451 9.14662 6.86451 9.18662 6.79784C10.9333 2.75784 12.9066 1.83784 16.8799 3.35784Z" stroke="#292D32" style="stroke:#292D32;stroke:color(display-p3 0.1608 0.1765 0.1961);stroke-opacity:1;" stroke-width="1.5" stroke-linecap="round" stroke-linejoin="round"/>
<path id="Vector_4" d="M24.066 12.6908C23.466 12.5041 22.826 12.4241 22.186 12.4241H12.9727L14.906 7.93742L16.8393 3.45076L16.8793 3.35742C17.0793 3.42409 17.266 3.51742 17.466 3.59742L20.4127 4.83742C22.0527 5.51742 23.1993 6.22409 23.8927 7.07742C24.026 7.23742 24.1327 7.38409 24.226 7.55742C24.346 7.74409 24.4393 7.93076 24.4927 8.13076C24.546 8.25076 24.586 8.37076 24.6127 8.47742C24.9727 9.59742 24.7593 10.9708 24.066 12.6908Z" stroke="#292D32" style="stroke:#292D32;stroke:color(display-p3 0.1608 0.1765 0.1961);stroke-opacity:1;" stroke-width="1.5" stroke-linecap="round" stroke-linejoin="round"/>
<path id="Vector_5" d="M28.695 18.9315V21.5315C28.695 21.7981 28.6816 22.0648 28.6683 22.3315C28.415 26.9848 25.815 29.3315 20.8816 29.3315H10.4816C10.1616 29.3315 9.84164 29.3048 9.53497 29.2648C5.29497 28.9848 3.02831 26.7181 2.74831 22.4781C2.70831 22.1715 2.68164 21.8515 2.68164 21.5315V18.9315C2.68164 16.2515 4.30831 13.9448 6.62831 12.9448C7.42831 12.6115 8.28164 12.4248 9.18831 12.4248H22.2016C22.855 12.4248 23.495 12.5181 24.0816 12.6915C26.735 13.5048 28.695 15.9848 28.695 18.9315Z" stroke="#292D32" style="stroke:#292D32;stroke:color(display-p3 0.1608 0.1765 0.1961);stroke-opacity:1;" stroke-width="1.5" stroke-linecap="round" stroke-linejoin="round"/>
<path id="Vector_6" d="M8.94602 7.37109L6.61268 12.9444C4.29268 13.9444 2.66602 16.2511 2.66602 18.9311V15.0244C2.66602 11.2378 5.35935 8.07776 8.94602 7.37109Z" stroke="#292D32" style="stroke:#292D32;stroke:color(display-p3 0.1608 0.1765 0.1961);stroke-opacity:1;" stroke-width="1.5" stroke-linecap="round" stroke-linejoin="round"/>
<path id="Vector_7" d="M28.6915 15.0232V18.9299C28.6915 15.9965 26.7448 13.5032 24.0781 12.7032C24.7715 10.9699 24.9715 9.60988 24.6381 8.47655C24.6115 8.35655 24.5715 8.23655 24.5181 8.12988C26.9981 9.40988 28.6915 12.0365 28.6915 15.0232Z" stroke="#292D32" style="stroke:#292D32;stroke:color(display-p3 0.1608 0.1765 0.1961);stroke-opacity:1;" stroke-width="1.5" stroke-linecap="round" stroke-linejoin="round"/>
</g>
</g>
<path id="Vector_8" d="M18 21.5L19.5 23L23.5 19" stroke="#292D32" style="stroke:#292D32;stroke:color(display-p3 0.1608 0.1765 0.1961);stroke-opacity:1;" stroke-width="1.2" stroke-linecap="round" stroke-linejoin="round"/>
</g>
</svg>
